<svg width="869" height="484" viewBox="0 0 869 484" fill="none" xmlns="http://www.w3.org/2000/svg">
<path d="M1.70568 16.7222C0.718141 17.6871 0.699834 19.2699 1.66479 20.2575L17.3896 36.3503C18.3546 37.3378 19.9374 37.3562 20.9249 36.3912C21.9125 35.4262 21.9308 33.8434 20.9658 32.8559L6.98818 18.5512L21.2929 4.57352C22.2805 3.60856 22.2988 2.02576 21.3338 1.03822C20.3689 0.0506848 18.786 0.0323787 17.7985 0.997333L1.70568 16.7222ZM469.04 250.995L466.566 251.354L469.04 250.995ZM280.289 478.171L279.532 480.554L279.766 480.628L280.009 480.656L280.289 478.171ZM3.42397 21.0101C77.1755 21.8631 185.001 23.5155 278.463 53.0541C371.833 82.5639 450.349 139.707 466.566 251.354L471.514 250.636C454.915 136.359 374.339 78.1119 279.97 48.2866C185.692 18.4901 77.1322 16.8622 3.48179 16.0104L3.42397 21.0101ZM466.566 251.354C481.964 357.37 462.101 416.133 425.735 447.049C389.229 478.085 335.254 481.833 280.568 475.687L280.009 480.656C334.942 486.829 390.787 483.323 428.974 450.859C467.302 418.275 487.005 357.29 471.514 250.636L466.566 251.354ZM281.045 475.789C241.884 463.352 201.302 442.356 179.215 408.864C157.299 375.631 153.201 329.46 188.305 265.587L183.923 263.179C148.19 328.198 151.834 376.426 175.041 411.617C198.077 446.548 240.001 468 279.532 480.554L281.045 475.789ZM188.305 265.587C207.825 230.07 269.168 186.58 379.836 188.881C490.447 191.18 650.11 239.271 865.451 386.684L868.275 382.558C652.466 234.825 491.863 186.209 379.94 183.882C268.076 181.556 204.62 225.52 183.923 263.179L188.305 265.587Z" fill="white"/>
</svg>
